<svg width="20" height="23" viewBox="0 0 20 23" fill="none" xmlns="http://www.w3.org/2000/svg">
<g filter="url(#filter0_d_80_3377)">
<path d="M10 19C9 19 5.3125 15.5958 3.9875 13.6375C2.6625 11.6792 2 9.86667 2 8.2C2 5.7 2.80417 3.70833 4.4125 2.225C6.02083 0.741667 7.88333 0 10 0C12.1167 0 13.9792 0.741667 15.5875 2.225C17.1958 3.70833 18 5.7 18 8.2C18 9.86667 17.3375 11.6792 16.0125 13.6375C14.6875 15.5958 11 19 10 19Z" fill="white"/>
<path d="M10 17C12.0333 15.1333 13.5417 13.7875 14.525 12.2625C15.5083 10.7375 16 9.38333 16 8.2C16 6.38333 15.4208 4.89583 14.2625 3.7375C13.1042 2.57917 11.6833 2 10 2C8.31667 2 6.89583 2.57917 5.7375 3.7375C4.57917 4.89583 4 6.38333 4 8.2C4 9.38333 4.49167 10.7375 5.475 12.2625C6.45833 13.7875 7.96667 15.1333 10 17ZM10 19C9 19 5.3125 15.5958 3.9875 13.6375C2.6625 11.6792 2 9.86667 2 8.2C2 5.7 2.80417 3.70833 4.4125 2.225C6.02083 0.741667 7.88333 0 10 0C12.1167 0 13.9792 0.741667 15.5875 2.225C17.1958 3.70833 18 5.7 18 8.2C18 9.86667 17.3375 11.6792 16.0125 13.6375C14.6875 15.5958 11 19 10 19Z" fill="#FF4081"/>
<path d="M11.9403 6.94034C11.8807 6.73295 11.7969 6.54972 11.6889 6.39063C11.581 6.22869 11.4489 6.09233 11.2926 5.98153C11.1392 5.8679 10.9631 5.78125 10.7642 5.72159C10.5682 5.66193 10.3509 5.6321 10.1122 5.6321C9.66619 5.6321 9.27415 5.7429 8.93608 5.96449C8.60085 6.18608 8.33949 6.50852 8.15199 6.93182C7.96449 7.35227 7.87074 7.86648 7.87074 8.47443C7.87074 9.08239 7.96307 9.59943 8.14773 10.0256C8.33239 10.4517 8.59375 10.777 8.93182 11.0014C9.26989 11.223 9.66903 11.3338 10.1293 11.3338C10.5469 11.3338 10.9034 11.2599 11.1989 11.1122C11.4972 10.9616 11.7244 10.75 11.8807 10.4773C12.0398 10.2045 12.1193 9.8821 12.1193 9.50994L12.4943 9.56534H10.2443V8.17614H13.8963V9.27557C13.8963 10.0426 13.7344 10.7017 13.4105 11.2528C13.0866 11.8011 12.6406 12.2244 12.0724 12.5227C11.5043 12.8182 10.8537 12.9659 10.1207 12.9659C9.30256 12.9659 8.58381 12.7855 7.96449 12.4247C7.34517 12.0611 6.86222 11.5455 6.51562 10.8778C6.17188 10.2074 6 9.41193 6 8.49148C6 7.78409 6.10227 7.15341 6.30682 6.59943C6.5142 6.04261 6.80398 5.57102 7.17614 5.18466C7.5483 4.7983 7.98153 4.50426 8.47585 4.30256C8.97017 4.10085 9.50568 4 10.0824 4C10.5767 4 11.0369 4.07244 11.4631 4.21733C11.8892 4.35938 12.267 4.56108 12.5966 4.82244C12.929 5.08381 13.2003 5.39489 13.4105 5.75568C13.6207 6.11364 13.7557 6.50852 13.8153 6.94034H11.9403Z" fill="#FF4081"/>
</g>
<defs>
<filter id="filter0_d_80_3377" x="0" y="0" width="20" height="23" filterUnits="userSpaceOnUse" color-interpolation-filters="sRGB">
<feFlood flood-opacity="0" result="BackgroundImageFix"/>
<feColorMatrix in="SourceAlpha" type="matrix" values="0 0 0 0 0 0 0 0 0 0 0 0 0 0 0 0 0 0 127 0" result="hardAlpha"/>
<feOffset dy="2"/>
<feGaussianBlur stdDeviation="1"/>
<feComposite in2="hardAlpha" operator="out"/>
<feColorMatrix type="matrix" values="0 0 0 0 0 0 0 0 0 0 0 0 0 0 0 0 0 0 0.25 0"/>
<feBlend mode="normal" in2="BackgroundImageFix" result="effect1_dropShadow_80_3377"/>
<feBlend mode="normal" in="SourceGraphic" in2="effect1_dropShadow_80_3377" result="shape"/>
</filter>
</defs>
</svg>
