<svg width="20" height="23" viewBox="0 0 20 23" fill="none" xmlns="http://www.w3.org/2000/svg">
<g filter="url(#filter0_d_80_3378)">
<path d="M10 19C9.14347 19 5.3125 15.5958 3.9875 13.6375C2.6625 11.6792 2 9.86667 2 8.2C2 5.7 2.80417 3.70833 4.4125 2.225C6.02083 0.741667 7.88333 0 10 0C12.1167 0 13.9792 0.741667 15.5875 2.225C17.1958 3.70833 18 5.7 18 8.2C18 9.86667 17.3375 11.6792 16.0125 13.6375C14.6875 15.5958 11.0824 19 10 19Z" fill="white"/>
<path d="M10 17C12.0333 15.1333 13.5417 13.7875 14.525 12.2625C15.5083 10.7375 16 9.38333 16 8.2C16 6.38333 15.4208 4.89583 14.2625 3.7375C13.1042 2.57917 11.6833 2 10 2C8.31667 2 6.89583 2.57917 5.7375 3.7375C4.57917 4.89583 4 6.38333 4 8.2C4 9.38333 4.49167 10.7375 5.475 12.2625C6.45833 13.7875 7.96667 15.1333 10 17ZM10 19C9.14347 19 5.3125 15.5958 3.9875 13.6375C2.6625 11.6792 2 9.86667 2 8.2C2 5.7 2.80417 3.70833 4.4125 2.225C6.02083 0.741667 7.88333 0 10 0C12.1167 0 13.9792 0.741667 15.5875 2.225C17.1958 3.70833 18 5.7 18 8.2C18 9.86667 17.3375 11.6792 16.0125 13.6375C14.6875 15.5958 11.0824 19 10 19Z" fill="#40C4FF"/>
<path d="M11.5156 6.62926C11.4815 6.28551 11.3352 6.01847 11.0767 5.82812C10.8182 5.63778 10.4673 5.54261 10.0241 5.54261C9.72301 5.54261 9.46875 5.58523 9.26136 5.67045C9.05398 5.75284 8.89489 5.8679 8.78409 6.01562C8.67614 6.16335 8.62216 6.33097 8.62216 6.51847C8.61648 6.67472 8.64915 6.81108 8.72017 6.92756C8.79403 7.04403 8.89489 7.14489 9.02273 7.23011C9.15057 7.3125 9.2983 7.38494 9.46591 7.44744C9.63352 7.5071 9.8125 7.55824 10.0028 7.60085L10.7869 7.78835C11.1676 7.87358 11.517 7.98722 11.8352 8.12926C12.1534 8.27131 12.429 8.44602 12.6619 8.65341C12.8949 8.8608 13.0753 9.10511 13.2031 9.38636C13.3338 9.66761 13.4006 9.99006 13.4034 10.3537C13.4006 10.8878 13.2642 11.3509 12.9943 11.7429C12.7273 12.1321 12.3409 12.4347 11.8352 12.6506C11.3324 12.8636 10.7259 12.9702 10.0156 12.9702C9.31108 12.9702 8.69744 12.8622 8.17472 12.6463C7.65483 12.4304 7.24858 12.1108 6.95597 11.6875C6.66619 11.2614 6.5142 10.7344 6.5 10.1065H8.28551C8.3054 10.3991 8.3892 10.6435 8.53693 10.8395C8.6875 11.0327 8.88778 11.179 9.13778 11.2784C9.39062 11.375 9.67614 11.4233 9.99432 11.4233C10.3068 11.4233 10.5781 11.3778 10.8082 11.2869C11.0412 11.196 11.2216 11.0696 11.3494 10.9077C11.4773 10.7457 11.5412 10.5597 11.5412 10.3494C11.5412 10.1534 11.483 9.98864 11.3665 9.85511C11.2528 9.72159 11.0852 9.60795 10.8636 9.5142C10.6449 9.42045 10.3764 9.33523 10.0582 9.25852L9.10795 9.01989C8.37216 8.84091 7.79119 8.56108 7.36506 8.1804C6.93892 7.79972 6.72727 7.28693 6.73011 6.64205C6.72727 6.11364 6.8679 5.65199 7.15199 5.2571C7.43892 4.86222 7.83239 4.55398 8.33239 4.33239C8.83239 4.1108 9.40057 4 10.0369 4C10.6847 4 11.25 4.1108 11.733 4.33239C12.2188 4.55398 12.5966 4.86222 12.8665 5.2571C13.1364 5.65199 13.2756 6.10937 13.2841 6.62926H11.5156Z" fill="#40C4FF"/>
</g>
<defs>
<filter id="filter0_d_80_3378" x="0" y="0" width="20" height="23" filterUnits="userSpaceOnUse" color-interpolation-filters="sRGB">
<feFlood flood-opacity="0" result="BackgroundImageFix"/>
<feColorMatrix in="SourceAlpha" type="matrix" values="0 0 0 0 0 0 0 0 0 0 0 0 0 0 0 0 0 0 127 0" result="hardAlpha"/>
<feOffset dy="2"/>
<feGaussianBlur stdDeviation="1"/>
<feComposite in2="hardAlpha" operator="out"/>
<feColorMatrix type="matrix" values="0 0 0 0 0 0 0 0 0 0 0 0 0 0 0 0 0 0 0.25 0"/>
<feBlend mode="normal" in2="BackgroundImageFix" result="effect1_dropShadow_80_3378"/>
<feBlend mode="normal" in="SourceGraphic" in2="effect1_dropShadow_80_3378" result="shape"/>
</filter>
</defs>
</svg>
